<?xml version="1.0" encoding="utf-8"?>
<!-- Generator: Adobe Illustrator 23.0.0, SVG Export Plug-In . SVG Version: 6.00 Build 0)  -->
<svg version="1.1" id="Layer_1" xmlns="http://www.w3.org/2000/svg" xmlns:xlink="http://www.w3.org/1999/xlink" x="0px" y="0px"
	 viewBox="0 0 800 300" style="enable-background:new 0 0 800 300;" xml:space="preserve">
<style type="text/css">
	.st0{fill-rule:evenodd;clip-rule:evenodd;fill:#222323;}
	.st1{fill:#222323;}
	.st2{fill:none;stroke:#222323;stroke-width:3;}
	.st3{fill:none;stroke:#222323;stroke-width:4;}
</style>
<path class="st0" d="M77,55.5l-2.4,11h30.9l-2.7,12.6h-31l-2.4,11h59.1l-0.3,1.2c-1.7,7.9-9.5,14.5-17.6,14.5H61.2
	c-8.1,0-13-6.7-11.3-14.5l8-37.2c1.7-7.9,9.5-14.5,17.6-14.5H125c5.6,0,10.2,3.3,11.4,8.9c0.4,1.8,0.3,3.6-0.1,5.6l-0.3,1.2H77z"/>
<path class="st0" d="M140.3,55.4h49.8c8,0,13,6.6,11.3,14.5l-7.8,36h-19.4l7.5-34.7h-25.5l-7.5,34.7h-19.4L140.3,55.4z"/>
<path class="st0" d="M258.5,55.4h-35.3c-8.1,0-15.9,6.6-17.6,14.5l-4.6,21.5c-1.2,5.5,0.8,10.8,6,13.4c1.6,0.8,3.4,1.2,5.4,1.2h30.4
	l-1.6,7.5h-44.9l-0.3,1.3c-1.7,7.8,3.2,14.5,11.3,14.5h35.3c8.1,0,15.9-6.6,17.6-14.5l9.7-44.9C271.5,62.1,266.5,55.4,258.5,55.4z
	 M246.1,90.2h-25.5l4.1-18.9h25.5L246.1,90.2z"/>
<path class="st0" d="M326.6,55.4h-35.3c-8.1,0-15.9,6.7-17.6,14.5L269,91.5c-0.4,2-0.5,3.9-0.1,5.6c1.3,5.6,5.8,8.8,11.4,8.8h35.3
	c8.1,0,15.9-6.6,17.6-14.5l0.3-1.3h-44.9l1.3-6h44.9l3.1-14.2C339.7,62.1,334.6,55.4,326.6,55.4z M317,77.1h-25.5l1.3-6h25.5
	L317,77.1z"/>
<path class="st0" d="M345.2,55.4H395c8,0,13,6.6,11.3,14.5l-7.8,36h-19.4l7.5-34.7h-25.5l-7.5,34.7h-19.4L345.2,55.4z"/>
<path class="st0" d="M463.3,55.5c8.1,0,13.1,6.6,11.4,14.5l-7.8,36h-19.4l7.5-34.7h-25.5l-7.5,34.7h-19.4l13-60.5
	c2.1-7.3,9.6-13.3,17.2-13.3h5l-5,23.3H463.3z"/>
<path class="st0" d="M531.7,55.4h-35.3c-8.1,0-15.9,6.7-17.6,14.5l-0.3,1.2h44.9l-1.3,6h-30.4c-8.1,0-15.8,6.6-17.6,14.4
	c0,0.5-0.2,0.9-0.1,1.3c-0.8,7.4,4.1,13.1,11.5,13.1h49.8l7.8-36C544.7,62.1,539.9,55.4,531.7,55.4z M519.3,90.1h-25.6l1.3-6h25.6
	L519.3,90.1z"/>
<path class="st0" d="M566.7,71.3l-7.5,34.6h-19.4l10.9-50.4h43.1c8.1,0,13,6.7,11.3,14.5l-0.3,1.3H566.7z"/>
<polygon class="st0" points="611.4,55.5 630.8,55.5 619.9,105.9 600.5,105.9 "/>
<path class="st0" d="M685.8,55.4h-35.3c-8.1,0-15.9,6.7-17.6,14.5l-0.3,1.2h44.9l-1.3,6h-30.4c-8.1,0-15.8,6.6-17.6,14.4
	c0,0.5-0.2,0.9-0.1,1.3c-0.8,7.4,4.1,13.1,11.5,13.1h49.8l7.8-36C698.8,62.1,693.9,55.4,685.8,55.4z M673.4,90.1h-25.6l1.3-6h25.6
	L673.4,90.1z"/>
<path class="st0" d="M102.9,192.7c-0.3,1.5-1,2.8-2,4.1c-3.5,4.2-9.4,6.4-14.7,6.4h-4.9l10.9-50.4H77.2l-10.9,50.4H46.9l10.9-50.4
	H42.9L32,203.2h-4.9c-3.4,0-6.9-0.9-9.5-3.1c-2.2-1.9-3.3-4.5-2.7-7.4l8.9-41.2c1.7-7.9,9.5-14.5,17.6-14.5h59
	c8.1,0,13.1,6.7,11.4,14.5L102.9,192.7z"/>
<path class="st0" d="M165.8,152.7h-35.3c-8.1,0-15.9,6.7-17.6,14.5l-4.6,21.5c-0.4,2-0.5,3.9-0.1,5.6c1.3,5.6,5.8,8.8,11.4,8.8h35.3
	c8.1,0,15.9-6.6,17.6-14.5l0.3-1.3h-44.9l1.3-6H174l3.1-14.2C178.8,159.3,173.8,152.7,165.8,152.7z M156.2,174.4h-25.5l1.3-6h25.5
	L156.2,174.4z"/>
<path class="st0" d="M241.1,187.4l-0.3,1.3c-1.7,7.8-9.5,14.5-17.6,14.5h-35.3c-5.6,0-10.2-3.2-11.5-8.8c-0.4-1.7-0.4-3.6,0.1-5.6
	l4.6-21.5c1.7-7.9,9.5-14.5,17.6-14.5h35.3c2,0,3.8,0.4,5.3,1.2c5.2,2.5,7.2,7.8,6,13.4l-0.3,1.2h-44.9l-4.1,18.9H241.1z"/>
<path class="st0" d="M303.2,152.7h-35.3c-8.1,0-15.9,6.7-17.6,14.5l-0.3,1.2h44.9l-1.3,6h-30.4c-8.1,0-15.8,6.6-17.6,14.4
	c0,0.5-0.2,0.9-0.1,1.3c-0.8,7.4,4.1,13.1,11.5,13.1h49.8l7.8-36C316.2,159.4,311.3,152.7,303.2,152.7z M290.8,187.4h-25.6l1.3-6
	h25.6L290.8,187.4z"/>
<path class="st0" d="M346.2,168.5l-4.1,18.9h21.5l-3.4,15.8h-26.4c-5.6,0-10.2-3.3-11.4-8.8c-0.4-1.8-0.4-3.6,0.1-5.6l4.4-20.2h-8
	l3.4-15.7h8l1.9-8.9c1.7-7.8,9.5-14.5,17.6-14.5h4.9l-5,23.3h21.5l-3.4,15.7H346.2z"/>
<path class="st0" d="M392.4,168.6l-7.5,34.6h-19.4l10.9-50.4h43.1c8.1,0,13,6.7,11.3,14.5l-0.3,1.3H392.4z"/>
<path class="st0" d="M508.8,152.7h49.8c8,0,13,6.6,11.3,14.5l-7.8,36h-19.4l7.5-34.7h-25.5l-7.5,34.7h-19.4L508.8,152.7z"/>
<polygon class="st0" points="577.1,152.8 596.5,152.8 585.6,203.2 566.3,203.2 "/>
<path class="st0" d="M658.4,187.4l-0.3,1.3c-1.7,7.8-9.5,14.5-17.6,14.5h-35.3c-5.6,0-10.2-3.2-11.5-8.8c-0.4-1.7-0.4-3.6,0.1-5.6
	l4.6-21.5c1.7-7.9,9.5-14.5,17.6-14.5h35.3c2,0,3.8,0.4,5.3,1.2c5.2,2.5,7.2,7.8,6,13.4l-0.3,1.2h-44.9l-4.1,18.9H658.4z"/>
<g>
	<path vector-effect="non-scaling-stroke" class="st1" d="M612.8,27.5v12.4c0,1.5,1.2,2.8,2.8,2.8H628c1.5,0,2.8-1.2,2.8-2.8V27.5
		c0-1.5-1.2-2.8-2.8-2.8h-12.4C614.1,24.8,612.8,26,612.8,27.5z"/>
	<g>
		<rect x="621.1" y="18.8" class="st1" width="1.5" height="6"/>
		<rect x="617.3" y="18.8" class="st1" width="1.5" height="6"/>
		<rect x="624.8" y="18.8" class="st1" width="1.5" height="6"/>
	</g>
	<g>
		
			<rect x="633.1" y="30.6" transform="matrix(2.927798e-11 -1 1 2.927798e-11 600.121 667.5142)" class="st1" width="1.5" height="6.2"/>
		
			<rect x="633.1" y="34.3" transform="matrix(2.927798e-11 -1 1 2.927798e-11 596.3934 671.2419)" class="st1" width="1.5" height="6.2"/>
		
			<rect x="633.1" y="26.9" transform="matrix(3.049833e-11 -1 1 3.049833e-11 603.8487 663.7865)" class="st1" width="1.5" height="6.2"/>
	</g>
	<g>
		<rect x="621.1" y="42.6" class="st1" width="1.5" height="6"/>
		<rect x="617.3" y="42.6" class="st1" width="1.5" height="6"/>
		<rect x="624.8" y="42.6" class="st1" width="1.5" height="6"/>
	</g>
	<g>
		
			<rect x="609.2" y="30.8" transform="matrix(1.439507e-10 -1 1 1.439507e-10 576.2638 643.6572)" class="st1" width="1.5" height="5.8"/>
		
			<rect x="609.2" y="34.5" transform="matrix(1.427312e-10 -1 1 1.427312e-10 572.5361 647.3849)" class="st1" width="1.5" height="5.8"/>
		
			<rect x="609.2" y="27.1" transform="matrix(1.451710e-10 -1 1 1.451710e-10 579.9915 639.9295)" class="st1" width="1.5" height="5.8"/>
	</g>
</g>
<g>
	<path vector-effect="non-scaling-stroke" class="st1" d="M578.6,127.4v12.4c0,1.5,1.2,2.8,2.8,2.8h12.4c1.5,0,2.8-1.2,2.8-2.8
		v-12.4c0-1.5-1.2-2.8-2.8-2.8h-12.4C579.8,124.7,578.6,125.9,578.6,127.4z"/>
	<g>
		<rect x="586.8" y="118.7" class="st1" width="1.5" height="6"/>
		<rect x="583" y="118.7" class="st1" width="1.5" height="6"/>
		<rect x="590.5" y="118.7" class="st1" width="1.5" height="6"/>
	</g>
	<g>
		
			<rect x="598.8" y="130.5" transform="matrix(2.927798e-11 -1 1 2.927798e-11 465.9247 733.1213)" class="st1" width="1.5" height="6.2"/>
		
			<rect x="598.8" y="134.3" transform="matrix(2.927798e-11 -1 1 2.927798e-11 462.197 736.849)" class="st1" width="1.5" height="6.2"/>
		
			<rect x="598.8" y="126.8" transform="matrix(3.171780e-11 -1 1 3.171780e-11 469.6523 729.3936)" class="st1" width="1.5" height="6.2"/>
	</g>
	<g>
		<rect x="586.8" y="142.5" class="st1" width="1.5" height="6"/>
		<rect x="583" y="142.5" class="st1" width="1.5" height="6"/>
		<rect x="590.5" y="142.5" class="st1" width="1.5" height="6"/>
	</g>
	<g>
		
			<rect x="574.9" y="130.7" transform="matrix(1.439507e-10 -1 1 1.439507e-10 442.0674 709.2643)" class="st1" width="1.5" height="5.8"/>
		
			<rect x="574.9" y="134.4" transform="matrix(1.439507e-10 -1 1 1.439507e-10 438.3398 712.992)" class="st1" width="1.5" height="5.8"/>
		
			<rect x="574.9" y="127" transform="matrix(1.439507e-10 -1 1 1.439507e-10 445.7951 705.5366)" class="st1" width="1.5" height="5.8"/>
	</g>
</g>
<path class="st0" d="M760.5,217.9c-9.2-4.3-13-9-13.7-17.5c-0.7-8.2,2-14.5,8.2-18.9c0.9-0.7,1-2,0.1-2.7l-23-13.4
	c0.6-6.9-4.1-12.6-11.6-12.6h-35.3c-8.1,0-15.9,6.7-17.6,14.5l-0.3,1.2h44.9l-1.3,6h-30.4c-8.1,0-15.8,6.6-17.6,14.4
	c0,0.5-0.2,0.9-0.1,1.3c-0.8,7.4,4.1,13.1,11.5,13.1h47.6l22.7,7.6l-4,7.5c-0.5,0.9-0.1,2,0.9,2.4c5.5,2.3,8.5,3.9,12.9,8.1
	c0.8,0.8,2.2,0.6,2.7-0.5l4.1-8.2C761.8,219.3,761.4,218.3,760.5,217.9z M708.2,187.4h-25.6l1.3-6h25.6L708.2,187.4z"/>
<path class="st1" d="M538.7,263l0.6-1.1c0.3-0.6,0.9-0.9,1.4-0.9l74.6,3c0.4,0,0.9,0.3,1.2,0.7l2.4,3c1.1,1.4,0.3,3.8-1.2,3.7
	l-80.7-5.1C535.6,266.2,537.9,264.4,538.7,263z"/>
<path class="st1" d="M702.2,270.2c-1.3-1.7-1.9-3.1-2.4-4.6c-0.2-0.5-0.7-0.8-1.2-0.8l-46.1,1.4c-0.5,0-0.9,0.3-1.1,0.7l-1.7,3.5
	c-0.4,0.8,0.2,1.8,1.1,1.8h50.4C702.3,272.3,702.9,271.1,702.2,270.2z"/>
<path class="st0" d="M481.7,210.4l3.8,4.6l4.9,1.5c2.6,0.8,5.1-1.3,4.8-3.9l-0.5-5.1l-3.8-4.6L481.7,210.4z"/>
<path class="st0" d="M488.9,219.1l4.9,0.7c2,0.3,3.8-1.1,3.9-3.2l0.3-4.9l14,17.2l-9.1,7.4L488.9,219.1z"/>
<path class="st0" d="M514.8,231.7l-10,8.4c-2.9,2.4-3.2,6.7-0.8,9.5l11.4,13.6c4.6,5.4,12.7,6.8,18.4,2.5c6.2-4.6,7.2-13.4,2.3-19.2
	l-11.8-14C521.9,229.6,517.6,229.3,514.8,231.7z M530.6,260.7c-3.7,3.1-9.3,2.7-12.5-1.1c-3.1-3.7-2.7-9.3,1.1-12.5
	c3.7-3.1,9.3-2.7,12.5,1.1C534.9,252,534.4,257.5,530.6,260.7z"/>
<g>
	<path class="st1" d="M500.2,176.1c0-1.4-0.2-2.7-0.4-4.1l-7.1-1.2l-2.4-6.7l4.7-5.4c-1.4-2.4-3.1-4.6-5.1-6.6l-6.4,3.2l-5.9-4
		l0.6-7.2c-2.4-1-5-1.8-7.7-2.3l-3.3,6.4l-7.1,0.2l-3.7-6.2c-2.7,0.6-5.4,1.6-7.8,2.8l1.1,7.1l-5.7,4.3l-6.6-2.9
		c-1.8,2.1-3.4,4.4-4.7,6.8l5,5.1l-2,6.8l-7,1.6c-0.1,1.4-0.2,2.9-0.1,4.3c0,1.3,0.2,2.7,0.4,4l7.1,1.2l2.4,6.7l-4.8,5.4
		c1.4,2.4,3.1,4.6,5.1,6.6l6.5-3.2l5.9,4l-0.7,7.2c2.5,1.1,5.2,1.9,8,2.3l3.3-6.4l7.1-0.2l3.7,6.2c2.7-0.6,5.4-1.6,7.8-2.8l-1.1-7.1
		l5.7-4.4l6.6,2.8c1.8-2.1,3.4-4.4,4.7-6.9l-5.1-5.1l2-6.9l7-1.6C500.2,178.9,500.3,177.5,500.2,176.1z M475,189.3
		c-6.7,5.9-16.8,5.2-22.7-1.5c-5.8-6.7-5.2-16.8,1.5-22.7c6.7-5.9,16.8-5.2,22.7,1.4C482.3,173.3,481.6,183.5,475,189.3z"/>
</g>
<circle class="st2" cx="635.4" cy="258.5" r="14.9"/>
<g>
	<path class="st1" d="M645.4,258.2c0-0.4,0-0.8-0.1-1.1l-2-0.3l-0.7-1.9l1.3-1.5c-0.4-0.7-0.9-1.3-1.4-1.8l-1.8,0.9l-1.6-1.1l0.2-2
		c-0.7-0.3-1.4-0.5-2.2-0.6l-0.9,1.8l-2,0l-1-1.7c-0.8,0.2-1.5,0.4-2.2,0.8l0.3,2l-1.6,1.2l-1.8-0.8c-0.5,0.6-0.9,1.2-1.3,1.9
		l1.4,1.4l-0.6,1.9l-2,0.4c0,0.4-0.1,0.8,0,1.2c0,0.4,0,0.7,0.1,1.1l2,0.3l0.7,1.9l-1.3,1.5c0.4,0.7,0.9,1.3,1.4,1.8l1.8-0.9
		l1.6,1.1l-0.2,2c0.7,0.3,1.4,0.5,2.2,0.7l0.9-1.8l2-0.1l1,1.7c0.8-0.2,1.5-0.4,2.2-0.8l-0.3-2l1.6-1.2l1.8,0.8
		c0.5-0.6,0.9-1.2,1.3-1.9l-1.4-1.4l0.6-1.9l2-0.4C645.4,259,645.4,258.6,645.4,258.2z M638.4,261.9c-1.9,1.6-4.7,1.5-6.3-0.4
		c-1.6-1.9-1.5-4.7,0.4-6.3c1.9-1.6,4.7-1.5,6.3,0.4C640.4,257.4,640.2,260.2,638.4,261.9z"/>
</g>
<circle class="st2" cx="768.1" cy="197.7" r="17.9"/>
<g>
	<path class="st1" d="M780.1,197.3c0-0.5-0.1-0.9-0.1-1.4l-2.4-0.4l-0.8-2.3l1.6-1.8c-0.5-0.8-1.1-1.5-1.7-2.2l-2.2,1.1l-2-1.3
		l0.2-2.4c-0.8-0.3-1.7-0.6-2.6-0.8l-1.1,2.1l-2.4,0.1l-1.2-2.1c-0.9,0.2-1.8,0.5-2.6,0.9l0.4,2.4l-1.9,1.5l-2.2-1
		c-0.6,0.7-1.1,1.5-1.6,2.3l1.7,1.7l-0.7,2.3l-2.4,0.5c0,0.5-0.1,1,0,1.5c0,0.4,0.1,0.9,0.1,1.3l2.4,0.4l0.8,2.3l-1.6,1.8
		c0.5,0.8,1.1,1.5,1.7,2.2l2.2-1.1l2,1.4l-0.2,2.4c0.8,0.4,1.7,0.6,2.7,0.8l1.1-2.1l2.4-0.1l1.2,2.1c0.9-0.2,1.8-0.5,2.6-0.9
		l-0.4-2.4l1.9-1.5l2.2,1c0.6-0.7,1.1-1.5,1.6-2.3l-1.7-1.7l0.7-2.3l2.4-0.5C780.1,198.3,780.1,197.8,780.1,197.3z M771.7,201.8
		c-2.2,2-5.6,1.8-7.6-0.5c-2-2.2-1.7-5.6,0.5-7.6c2.2-2,5.6-1.8,7.6,0.5C774.1,196.4,773.9,199.8,771.7,201.8z"/>
</g>
<circle class="st3" cx="731.6" cy="252.1" r="29.1"/>
<g>
	<path class="st1" d="M751.1,251.5c0-0.8-0.1-1.5-0.2-2.2l-3.9-0.6l-1.3-3.7l2.6-3c-0.8-1.3-1.7-2.5-2.8-3.6l-3.5,1.8l-3.2-2.2
		l0.3-3.9c-1.3-0.6-2.7-1-4.2-1.2l-1.8,3.5l-3.9,0.1l-2-3.4c-1.5,0.3-2.9,0.8-4.3,1.5l0.6,3.9l-3.1,2.4l-3.6-1.6
		c-1,1.1-1.9,2.4-2.6,3.7l2.7,2.8l-1.1,3.7l-3.8,0.9c-0.1,0.8-0.1,1.6-0.1,2.4c0,0.7,0.1,1.4,0.2,2.2l3.9,0.7l1.3,3.7l-2.6,2.9
		c0.8,1.3,1.7,2.5,2.8,3.6l3.5-1.7l3.2,2.2l-0.4,3.9c1.4,0.6,2.8,1,4.3,1.3l1.8-3.5l3.9-0.1l2,3.4c1.5-0.3,2.9-0.9,4.3-1.5l-0.6-3.9
		l3.1-2.4l3.6,1.5c1-1.1,1.8-2.4,2.6-3.7l-2.8-2.8l1.1-3.7l3.8-0.9C751.1,253.1,751.1,252.3,751.1,251.5z M737.4,258.7
		c-3.6,3.2-9.2,2.8-12.4-0.8c-3.2-3.6-2.8-9.2,0.8-12.4c3.6-3.2,9.2-2.8,12.3,0.8C741.4,250,741,255.5,737.4,258.7z"/>
</g>
<g>
	<path class="st1" d="M532.5,253.2c0-0.3,0-0.6-0.1-0.8l-1.4-0.2l-0.5-1.4l1-1.1c-0.3-0.5-0.6-0.9-1-1.3l-1.3,0.7l-1.2-0.8l0.1-1.5
		c-0.5-0.2-1-0.4-1.6-0.5l-0.7,1.3l-1.5,0l-0.7-1.3c-0.6,0.1-1.1,0.3-1.6,0.6l0.2,1.4l-1.2,0.9l-1.3-0.6c-0.4,0.4-0.7,0.9-1,1.4l1,1
		l-0.4,1.4l-1.4,0.3c0,0.3,0,0.6,0,0.9c0,0.3,0,0.5,0.1,0.8l1.4,0.2l0.5,1.4l-1,1.1c0.3,0.5,0.6,0.9,1,1.3l1.3-0.7l1.2,0.8l-0.1,1.5
		c0.5,0.2,1.1,0.4,1.6,0.5l0.7-1.3l1.5,0l0.7,1.3c0.6-0.1,1.1-0.3,1.6-0.6l-0.2-1.4l1.1-0.9l1.3,0.6c0.4-0.4,0.7-0.9,1-1.4l-1-1
		l0.4-1.4l1.4-0.3C532.5,253.8,532.5,253.5,532.5,253.2z M527.4,255.9c-1.4,1.2-3.4,1.1-4.6-0.3c-1.2-1.4-1.1-3.4,0.3-4.6
		c1.4-1.2,3.4-1.1,4.6,0.3C528.9,252.7,528.7,254.7,527.4,255.9z"/>
</g>
<path class="st1" d="M537.6,244.6c1.6,2,3.5,5.3,3.9,10c0.1,0.8,0.7,1.3,1.5,1.3h71.8c0.7,0,1.3-0.5,1.5-1.3
	c0.7-4.3,4.1-16.6,19.2-16.6c16.4,0,18.5,12.9,19.2,16.7c0.1,0.7,0.7,1.2,1.4,1.2h40.4c0.8,0,1.5-0.7,1.5-1.6
	c-0.3-4.6-0.1-18.6,9.5-26.5c1.1-0.9,0.4-2.8-1.1-2.6L537,241C535.8,241.1,536.8,243.6,537.6,244.6z"/>
<path class="st1" d="M773.3,217.6l-11.3,17.8c-0.2,0.3-0.2,0.5-0.1,0.8c0.4,1.2,1.4,4.9,1.8,8.3c0.1,1,1.4,1.2,1.9,0.4l17.5-29.3
	c0.5-0.9-0.5-2-1.4-1.4c-2,1.2-4.6,2.5-7.6,2.9C773.7,217.1,773.4,217.3,773.3,217.6z"/>
<path class="st1" d="M459.8,117.1l-21.2,22h9.6l12.8-14.3h8l13.3,14.3h9l-21.2-22H459.8z"/>
</svg>
